# xmcd
#
# Track frame offsets:
#	150
#	16265
#	32906
#	50254
#	68568
#	86933
#	103734
#	119848
#	136488
#	153835
#	172152
#	190516
#
# Disc length: 2764 seconds
#
# Revision: 1
# Processed by: cddbd v1.5.2PL0 Copyright (c) Steve Scherf et al.
# Submitted via: audiograbber 1.83.01
#
DISCID=a20aca0c
DTITLE=Various Artist - CB20045 Hot Hits Vol. 45
DYEAR=1900
DGENRE=Karaoke
TTITLE0=Steve Wariner - Road Trippin' (Vocals)
TTITLE1=Jeff Carbon - Shine On (Vocals)
TTITLE2=Brooks and Dunn - How Long Gone (Vocals)
TTITLE3=Kevin Sharp - If She Only Knew (Vocals)
TTITLE4=Bryan White - Tree Of Hearts (Vocals)
TTITLE5=Mark Wills - Don't Laugh At Me (Vocals)
TTITLE6=Steve Wariner - Road Trippin'
TTITLE7=Jeff Carbon - Shine On
TTITLE8=Brooks and Dunn - How Long Gone
TTITLE9=Kevin Sharp - If She Only Knew
TTITLE10=Bryan White - Tree Of Hearts
TTITLE11=Mark Wills - Don't Laugh At Me
EXTD=
EXTT0=
EXTT1=
EXTT2=
EXTT3=
EXTT4=
EXTT5=
EXTT6=
EXTT7=
EXTT8=
EXTT9=
EXTT10=
EXTT11=
PLAYORDER=
